<svg width="11" height="12" viewBox="0 0 11 12" fill="none" xmlns="http://www.w3.org/2000/svg">
<path fill-rule="evenodd" clip-rule="evenodd" d="M6.85578 7.63199C6.13615 8.19148 5.23187 8.52454 4.24977 8.52454C1.90269 8.52454 0 6.62194 0 4.27476C0 1.92758 1.90269 0.0249939 4.24977 0.0249939C6.59686 0.0249939 8.49954 1.92758 8.49954 4.27476C8.49954 5.2568 8.16639 6.16127 7.60699 6.88081L11 10.2738L10.2488 11.025L6.85578 7.63199ZM7.4371 4.27476C7.4371 6.03496 6.01009 7.46209 4.24977 7.46209C2.48945 7.46209 1.06244 6.03496 1.06244 4.27476C1.06244 2.51457 2.48945 1.08744 4.24977 1.08744C6.01009 1.08744 7.4371 2.51457 7.4371 4.27476Z" fill="black"/>
</svg>
