<svg width="11" height="13" viewBox="0 0 11 13" fill="none" xmlns="http://www.w3.org/2000/svg">
<path d="M5.47624 12.975C4.01768 12.975 2.63867 12.4048 1.60442 11.3706C0.570166 10.3363 0 8.95733 0 7.49876C0 6.0402 0.570166 4.66119 1.60442 3.62694C2.63867 2.60595 4.00442 2.03578 5.47624 2.03578C6.49724 2.03578 7.47845 2.31423 8.32707 2.83136L7.83646 1.20042L8.57901 0.975006L9.52044 4.13081L6.36464 5.07224L6.13923 4.3297L8.23425 3.7065C7.43867 3.12307 6.47072 2.80484 5.47624 2.80484C4.21657 2.80484 3.03646 3.29545 2.16133 4.18385C1.27293 5.07224 0.78232 6.25235 0.78232 7.49876C0.78232 8.75843 1.27293 9.93854 2.16133 10.8137C3.04972 11.7021 4.22983 12.1927 5.47624 12.1927C6.73591 12.1927 7.91602 11.7021 8.79116 10.8137C9.82541 9.77943 10.316 8.36064 10.1304 6.90208L10.1039 6.71644L10.8729 6.62362L10.8994 6.80926C11.1116 8.5065 10.5414 10.164 9.33481 11.3706C8.30055 12.4048 6.93481 12.975 5.47624 12.975Z" fill="black"/>
</svg>
